<svg xmlns="http://www.w3.org/2000/svg" xmlns:xlink="http://www.w3.org/1999/xlink" width="104" height="182" viewBox="0 0 104 182"><defs><clipPath id="a"><rect width="182" height="104" transform="translate(-2 -4)" fill="none"/></clipPath></defs><g transform="translate(3.875 180) rotate(-90)"><g transform="translate(0 0.125)" clip-path="url(#a)"><path d="M88.44,0c48.844,0,88.44,21.813,88.44,48.721s-39.6,48.721-88.44,48.721S0,75.63,0,48.721,39.6,0,88.44,0Z" transform="translate(0.53 0.318)" fill="none" stroke="#fff" stroke-width="1"/><path d="M135.443,49.221A48.721,48.721,0,1,1,86.721.5a48.722,48.722,0,0,1,48.721,48.721" transform="translate(2.248 -0.182)" fill="#1c1f21" fill-rule="evenodd"/><circle cx="48.721" cy="48.721" r="48.721" transform="translate(40.248 0.318)" fill="none" stroke="#fff" stroke-miterlimit="10" stroke-width="1"/><path d="M109.721,47.861A24.361,24.361,0,1,1,85.361,23.5a24.36,24.36,0,0,1,24.361,24.361" transform="translate(3.609 1.179)" fill="#fff" fill-rule="evenodd"/><circle cx="24.361" cy="24.361" r="24.361" transform="translate(64.609 24.679)" fill="none" stroke="#fff" stroke-miterlimit="10" stroke-width="1"/></g></g></svg>