<svg xmlns="http://www.w3.org/2000/svg" xmlns:xlink="http://www.w3.org/1999/xlink" width="149.563" height="128.978" viewBox="0 0 149.563 128.978"><defs><clipPath id="a"><rect width="149.563" height="128.978" fill="#fff"/></clipPath></defs><g clip-path="url(#a)"><path d="M74.642,128.974H4.073c-3.3,0-4.073-.773-4.073-4.065Q0,72.129,0,19.349c0-3.108.884-3.985,4.05-3.986q22.641-.007,45.282,0c2.125,0,2.128,0,2.129-2.08,0-3.332-.014-6.665.007-10C51.484,1.06,52.5.011,54.7.009q20.068-.019,40.136,0c2.208,0,3.24,1.043,3.255,3.251.024,3.43.068,6.862-.021,10.291-.037,1.424.436,1.84,1.841,1.836q22.567-.062,45.135-.024a14.57,14.57,0,0,1,1.762.046,2.842,2.842,0,0,1,2.748,3.039c.013.343.006.686.006,1.029V124.889c0,.245,0,.49,0,.735-.036,2.306-1.032,3.332-3.319,3.344-3.773.019-7.547.006-11.32.006H74.642M144.1,72.429q0-24.848.025-49.7c0-1.341-.39-1.781-1.748-1.777q-21.245.059-42.491,0c-1.271,0-1.817.276-1.815,1.709q.062,34.183,0,68.367c0,1.357.506,1.637,1.729,1.619,4.214-.059,8.429-.026,12.644-.021,2.773,0,3.607.83,3.608,3.579,0,8.527.03,17.055-.027,25.582-.009,1.369.413,1.75,1.754,1.742,8.135-.054,16.271-.025,24.406-.028,1.906,0,1.91-.006,1.91-1.975q0-24.553,0-49.107m-138.632-.2q0,24.775-.026,49.55c0,1.336.368,1.772,1.738,1.762q12.277-.086,24.554,0c1.44.011,1.813-.449,1.8-1.842-.057-8.478-.03-16.958-.027-25.436,0-2.855.786-3.626,3.692-3.628q6.176-.006,12.351,0c1.907,0,1.911-.006,1.911-1.975q0-33.818,0-67.635c0-2.034,0-2.041-2.021-2.041q-20.952,0-41.9,0c-2.069,0-2.072.006-2.072,2.137q0,24.554,0,49.109M92.633,49.109c0-13.914-.019-27.829.029-41.743.005-1.441-.327-1.947-1.865-1.938q-16.021.1-32.041,0c-1.549-.009-1.859.516-1.857,1.946q.057,41.669.029,83.338c0,1.917.006,1.917,1.963,1.922h.588c2.275,0,2.276,0,2.276-2.345q0-27.926,0-55.853c0-2.6.956-3.551,3.543-3.555q9.26-.013,18.52,0c3.177,0,3.983.811,3.983,4.005q0,27.412.006,54.824c0,3.294-.411,2.9,2.867,2.922,1.95.013,1.955,0,1.955-1.927q0-20.8,0-41.6M67.22,64.411c0,8.868.016,17.736-.019,26.6,0,1.161.276,1.666,1.551,1.644,4.016-.067,8.035-.054,12.052-.006,1.111.013,1.56-.29,1.558-1.485q-.045-26.677,0-53.354c0-1.188-.433-1.506-1.551-1.492-3.919.049-7.841.091-11.757-.017-1.549-.042-1.872.509-1.862,1.944.059,8.721.03,17.441.03,26.162m7.562,59.1c7.981,0,15.962-.02,23.942.021,1.214.006,1.621-.385,1.6-1.6q-.086-6.021,0-12.044c.014-1.154-.385-1.522-1.532-1.52q-24.015.042-48.031,0c-1.151,0-1.543.373-1.528,1.523.051,3.916.083,7.835-.014,11.749-.037,1.5.43,1.914,1.913,1.9,7.882-.068,15.765-.032,23.648-.032M74.773,98.1c-11.319,0-22.638.028-33.956-.033-1.518-.008-1.9.469-1.887,1.928.069,6.81.014,13.622.037,20.432.012,3.534-.464,2.985,3.154,3.117,1.421.052,1.718-.5,1.7-1.791-.06-5.193-.032-10.388-.021-15.581.005-2.3.911-3.234,3.194-3.236q27.782-.013,55.565,0c2.253,0,3.189.968,3.195,3.248.012,4.8-.014,9.6.011,14.406.017,3.317-.468,2.833,3.006,2.951,1.391.047,1.869-.363,1.856-1.805q-.1-10.877,0-21.755c.014-1.479-.4-1.922-1.9-1.914-11.319.059-22.637.032-33.956.032" transform="translate(0 0)" fill="#fff"/><path d="M365.227,95.028c0,1.568.019,3.137,0,4.7-.029,1.974-.966,3.134-2.881,3.192q-4.993.152-9.993,0a2.749,2.749,0,0,1-2.864-3.055q-.047-4.851,0-9.7a2.748,2.748,0,0,1,2.873-3.045q4.993-.144,9.994,0a2.761,2.761,0,0,1,2.867,3.054c.033,1.616.007,3.234.008,4.851m-7.83,2.333c2.367,0,2.367,0,2.369-2.272,0-2.4,0-2.4-2.387-2.4-2.442,0-2.442,0-2.442,2.345,0,2.328,0,2.328,2.46,2.327" transform="translate(-246.547 -61.414)" fill="#fff"/><path d="M419.39,95c0-1.568-.019-3.136,0-4.7.029-1.968.976-3.123,2.893-3.179q4.993-.144,9.994,0a2.75,2.75,0,0,1,2.851,3.067q.046,4.851,0,9.7a2.75,2.75,0,0,1-2.888,3.033q-4.993.142-9.993,0c-1.86-.057-2.815-1.2-2.851-3.068-.031-1.616-.006-3.234-.007-4.851m7.9,2.357c2.392,0,2.392,0,2.394-2.247,0-2.425,0-2.425-2.361-2.426-2.467,0-2.467,0-2.467,2.32,0,2.353,0,2.353,2.434,2.353" transform="translate(-295.876 -61.412)" fill="#fff"/><path d="M419.389,304.69c0-1.568-.02-3.137,0-4.7.031-1.964.982-3.114,2.905-3.168q4.994-.14,9.994.007c1.853.057,2.821,1.207,2.839,3.078q.045,4.777,0,9.555c-.016,1.964-.978,3.113-2.905,3.169q-4.993.143-9.994-.007c-1.856-.058-2.8-1.207-2.84-3.078-.03-1.617-.006-3.234-.007-4.851m7.8,2.369c2.485,0,2.485,0,2.488-2.153,0-2.517,0-2.517-2.268-2.519-2.559,0-2.559,0-2.561,2.226,0,2.445,0,2.445,2.341,2.446" transform="translate(-295.875 -209.357)" fill="#fff"/><path d="M365.229,164.889c0,1.617.023,3.235-.007,4.851-.035,1.874-.98,3.029-2.833,3.085q-5.066.154-10.14-.007a2.7,2.7,0,0,1-2.761-3q-.052-4.851,0-9.7c.017-1.875.979-3.029,2.83-3.085q5.066-.151,10.14.008c1.782.058,2.7,1.208,2.772,3,0,.1,0,.2,0,.294q0,2.279,0,4.557m-7.807-2.295c-2.481,0-2.481,0-2.483,2.157,0,2.513,0,2.513,2.271,2.516,2.555,0,2.555,0,2.557-2.23,0-2.441,0-2.441-2.345-2.442" transform="translate(-246.548 -110.735)" fill="#fff"/><path d="M435.132,164.881c0,1.617.023,3.234-.008,4.851-.036,1.87-.985,3.019-2.842,3.077q-4.993.157-9.993.008c-1.927-.055-2.888-1.2-2.9-3.169q-.037-4.7,0-9.409c.014-2.1,1.032-3.209,3.135-3.254,3.184-.067,6.371-.072,9.555.006,2.023.049,3,1.169,3.058,3.185,0,.1,0,.2,0,.294q0,2.205,0,4.41m-7.945,2.369c2.481,0,2.481,0,2.483-2.157,0-2.513,0-2.513-2.271-2.516-2.555,0-2.555,0-2.557,2.231,0,2.441,0,2.441,2.345,2.442" transform="translate(-295.866 -110.719)" fill="#fff"/><path d="M435.128,234.828c0,1.568.019,3.136,0,4.7-.029,1.974-.965,3.135-2.88,3.193q-4.993.151-9.994,0a2.749,2.749,0,0,1-2.864-3.054q-.047-4.851,0-9.7a2.747,2.747,0,0,1,2.872-3.046q4.993-.144,9.994,0a2.761,2.761,0,0,1,2.867,3.053c.033,1.616.007,3.234.008,4.851m-5.461-.028c0-2.311,0-2.311-2.329-2.312-2.5,0-2.5,0-2.5,2.287,0,2.385,0,2.385,2.4,2.385,2.427,0,2.427,0,2.426-2.361" transform="translate(-295.862 -160.045)" fill="#fff"/><path d="M365.229,234.885c0,1.568.022,3.137-.005,4.7-.033,1.894-.954,3.059-2.8,3.118q-5.065.165-10.139,0c-1.846-.059-2.787-1.221-2.8-3.11q-.041-4.777,0-9.555c.016-1.945,1-3.083,2.939-3.137q4.921-.134,9.848,0c1.937.052,2.918,1.188,2.952,3.128.029,1.616.006,3.234.006,4.851m-7.8-2.4c-2.486,0-2.486,0-2.489,2.151,0,2.52,0,2.52,2.265,2.522,2.562,0,2.562,0,2.564-2.226,0-2.445,0-2.445-2.339-2.447" transform="translate(-246.549 -160.037)" fill="#fff"/><path d="M50.679,95.07c0,1.568.021,3.137-.006,4.7-.033,1.95-1,3.091-2.933,3.146q-4.921.141-9.848,0a2.794,2.794,0,0,1-2.958-3.12q-.043-4.777,0-9.556a2.833,2.833,0,0,1,3.075-3.16q4.775-.11,9.555,0c2.093.047,3.073,1.167,3.116,3.278,0,.1,0,.2,0,.294q0,2.205,0,4.41m-7.963,2.28c2.5,0,2.5,0,2.5-2.14,0-2.53,0-2.53-2.255-2.532-2.572,0-2.572,0-2.573,2.214,0,2.458,0,2.458,2.328,2.459" transform="translate(-24.631 -61.403)" fill="#fff"/><path d="M120.579,95.051c0,1.568.02,3.137,0,4.7-.031,1.965-.978,3.115-2.9,3.171q-4.994.144-9.994-.007c-1.857-.058-2.822-1.207-2.84-3.077q-.045-4.777,0-9.556c.015-1.966.977-3.115,2.9-3.169q4.994-.14,9.994.007c1.853.057,2.807,1.206,2.843,3.075.031,1.617.006,3.234.007,4.852m-7.951,2.308c2.487,0,2.487,0,2.49-2.15,0-2.52,0-2.52-2.265-2.522-2.562,0-2.562,0-2.563,2.223,0,2.448,0,2.448,2.338,2.449" transform="translate(-73.947 -61.412)" fill="#fff"/><path d="M34.937,304.58c0-1.568-.024-3.137.008-4.7a2.757,2.757,0,0,1,2.866-3.052q4.993-.145,9.994,0a2.749,2.749,0,0,1,2.874,3.046q.049,4.851,0,9.7a2.75,2.75,0,0,1-2.866,3.054q-4.993.149-9.994,0c-1.914-.058-2.836-1.219-2.882-3.194,0-.1,0-.2,0-.294q0-2.278,0-4.557m7.479,2.455c.776,0,1.363.013,1.949,0,.516-.014.752-.3.853-.814.634-3.225.1-3.885-3.149-3.823-.521.01-1.278-.192-1.471.365a6.511,6.511,0,0,0-.063,3.751c.259.978,1.362.376,1.881.525" transform="translate(-24.642 -209.359)" fill="#fff"/><path d="M50.68,164.988c0,1.568.021,3.137-.006,4.7-.033,1.892-.957,3.056-2.8,3.116q-5.066.163-10.14,0c-1.844-.059-2.783-1.222-2.8-3.113q-.04-4.778,0-9.556c.016-1.944,1.005-3.08,2.942-3.133q4.921-.133,9.848,0c1.936.052,2.9,1.189,2.955,3.13,0,.1,0,.2,0,.294q0,2.279,0,4.558m-7.916,2.266c2.451,0,2.451,0,2.453-2.189,0-2.482,0-2.482-2.3-2.484-2.524,0-2.524,0-2.526,2.261,0,2.411,0,2.411,2.375,2.411" transform="translate(-24.632 -110.722)" fill="#fff"/><path d="M120.577,164.922c0,1.568.019,3.136,0,4.7-.029,1.977-.962,3.14-2.874,3.2q-4.993.153-9.994,0a2.749,2.749,0,0,1-2.87-3.049q-.048-4.851,0-9.7a2.746,2.746,0,0,1,2.865-3.051q4.994-.145,9.994,0a2.76,2.76,0,0,1,2.874,3.047c.034,1.616.007,3.234.008,4.852m-7.873,2.34c2.41,0,2.41,0,2.412-2.228,0-2.443,0-2.443-2.343-2.444-2.485,0-2.485,0-2.486,2.3,0,2.37,0,2.37,2.417,2.37" transform="translate(-73.945 -110.73)" fill="#fff"/><path d="M120.577,234.823c0,1.568.019,3.137,0,4.7-.029,1.976-.962,3.139-2.875,3.2q-4.993.153-9.994,0a2.749,2.749,0,0,1-2.869-3.05q-.048-4.851,0-9.7a2.746,2.746,0,0,1,2.867-3.05q4.993-.144,9.994,0a2.761,2.761,0,0,1,2.873,3.048c.034,1.616.007,3.234.008,4.851m-7.863,2.339c2.4,0,2.4,0,2.4-2.239,0-2.433,0-2.433-2.353-2.434-2.475,0-2.475,0-2.475,2.312,0,2.361,0,2.361,2.427,2.36" transform="translate(-73.945 -160.045)" fill="#fff"/><path d="M50.68,234.9c0,1.568.021,3.137-.007,4.7-.034,1.888-.962,3.049-2.808,3.108q-5.066.162-10.14,0c-1.842-.06-2.775-1.225-2.791-3.121q-.039-4.778,0-9.556c.017-1.939,1.011-3.073,2.95-3.125q4.921-.131,9.848,0c1.934.053,2.889,1.192,2.946,3.138,0,.1,0,.2,0,.294q0,2.279,0,4.558m-7.916,2.257c2.451,0,2.451,0,2.453-2.189,0-2.482,0-2.482-2.3-2.484-2.524,0-2.524,0-2.526,2.261,0,2.411,0,2.411,2.375,2.412" transform="translate(-24.632 -160.037)" fill="#fff"/><path d="M242.948,42.819a2.812,2.812,0,0,1-3.1,2.817c-1.589-.016-2.145.474-2.066,2.089a2.711,2.711,0,1,1-5.386-.029c.056-1.486-.332-2.1-1.942-2.056a2.849,2.849,0,0,1-3.225-2.7c-.04-1.616,1.231-2.844,3.254-2.821,1.475.017,1.98-.435,1.914-1.932a2.731,2.731,0,1,1,5.39.021c-.072,1.527.491,1.923,1.936,1.91,1.953-.018,3.188,1.137,3.229,2.7" transform="translate(-160.308 -24.712)" fill="#fff"/></g></svg>