<svg xmlns="http://www.w3.org/2000/svg" xmlns:xlink="http://www.w3.org/1999/xlink" width="132.77" height="132.542" viewBox="0 0 132.77 132.542"><defs><clipPath id="a"><rect width="132.77" height="132.542" fill="#fff" stroke="#fff" stroke-width="0.6"/></clipPath></defs><g transform="translate(0 0)" clip-path="url(#a)"><path d="M64.744,128.975H3.1q-2.81-.011-2.744-1.758c.043-1.138,1.017-1.755,2.826-1.792,3.158-.064,3.158-.064,3.158-3.279a2.272,2.272,0,0,1,0-.287c.273-2.091-.2-3.466-2.417-4.549-3.384-1.649-4.657-5.734-3.505-9.277a8.164,8.164,0,0,1,8.259-5.658,8.265,8.265,0,0,1,7.475,6.677A7.906,7.906,0,0,1,11.6,117.8,2.4,2.4,0,0,0,9.9,120.6a32.544,32.544,0,0,1,.016,3.591c-.022.84.308,1.237,1.173,1.23,2.347-.019,4.694-.014,7.041,0,.791,0,1.135-.367,1.1-1.147-.021-.43,0-.862,0-1.293q0-36.284,0-72.569c0-2.774.393-3.177,3.127-3.18,4.311-.006,8.623-.052,12.932.026,1.41.025,1.81-.463,1.772-1.822-.086-3.015.019-6.036-.047-9.052a3.05,3.05,0,0,1,1.486-2.862c7.744-5.306,15.436-10.688,23.2-15.971a3.181,3.181,0,0,0,1.577-3.06c-.087-3.974-.04-7.951-.026-11.927C63.249.549,63.8.013,65.809.008q5.389-.014,10.778,0c1.817.006,2.354.426,2.426,2.245.1,2.487.1,4.981.028,7.469-.048,1.787-.684,2.387-2.506,2.429-2.681.06-5.366.068-8.047.008-1.208-.027-1.625.333-1.717,1.614a4.189,4.189,0,0,0,2.182,4.2c7.481,5.1,14.848,10.357,22.283,15.52a3.074,3.074,0,0,1,1.512,2.853c-.071,3.064.043,6.133-.052,9.2-.042,1.37.463,1.714,1.744,1.7,4.406-.06,8.814-.031,13.22-.018,2.359.007,2.87.527,2.871,2.871q0,36.572,0,73.144c0,2.187,0,2.188,2.214,2.19,1.724,0,3.449-.029,5.173.008.97.021,1.4-.341,1.362-1.346a38.664,38.664,0,0,1,.013-4.165c.08-1.123-.432-1.55-1.4-1.957a8.066,8.066,0,0,1-4.828-9,8.129,8.129,0,0,1,15.965-.011,8.027,8.027,0,0,1-4.682,8.943,2.009,2.009,0,0,0-1.521,2.321,31.561,31.561,0,0,1,.015,3.877c-.038,1.009.409,1.373,1.373,1.34a25.347,25.347,0,0,1,2.872.037c1.367.108,2.187.876,2.045,1.911-.169,1.233-1.027,1.6-2.172,1.6-3.3-.015-6.61,0-9.915,0H64.744m-41.955-40.9c0,11.832.022,23.665-.028,35.5-.006,1.455.452,1.9,1.894,1.884q11.065-.09,22.131,0c1.413.011,1.777-.478,1.769-1.829-.052-8.431-.028-16.862-.024-25.293,0-2.406.45-2.862,2.841-2.863q13.509-.006,27.018,0c2.385,0,2.836.461,2.837,2.867,0,8.479.022,16.958-.021,25.437-.006,1.234.346,1.684,1.625,1.676q11.209-.07,22.419,0c1.305.008,1.745-.413,1.743-1.734q-.046-35.641,0-71.281c0-1.378-.511-1.685-1.773-1.668-4.358.062-8.718.026-13.077.022-2.424,0-2.941-.5-2.958-2.944-.022-3.209-.054-6.42.016-9.628a3.013,3.013,0,0,0-1.449-2.857q-10.7-7.4-21.3-14.919a2.074,2.074,0,0,0-2.8-.024Q52.762,28.035,41.791,35.54a2.546,2.546,0,0,0-1.23,2.382c.046,3.353.037,6.707.006,10.06-.021,2.275-.571,2.8-2.808,2.8-4.359.006-8.719,0-13.078,0-1.883,0-1.891.006-1.891,1.931q0,17.677,0,35.353m40.448,24.2c0-3.875-.045-7.75.026-11.623.023-1.287-.433-1.653-1.666-1.619-2.677.075-5.358.062-8.035.006-1.136-.024-1.5.418-1.5,1.517q.043,11.7,0,23.391c0,1.133.455,1.512,1.543,1.494,2.63-.043,5.264-.08,7.892.014,1.429.051,1.785-.512,1.761-1.844-.071-3.778-.025-7.558-.025-11.337m3.587-.054c0,3.922.023,7.843-.015,11.764-.01,1.032.326,1.473,1.4,1.456,2.677-.044,5.356-.039,8.034,0,1.043.014,1.447-.4,1.444-1.441q-.032-11.765,0-23.529c0-1.046-.377-1.446-1.433-1.427-2.629.047-5.261.062-7.89-.007-1.189-.031-1.581.38-1.563,1.565.057,3.873.022,7.747.022,11.621m-54.15-1.7a4.442,4.442,0,0,0-4.514-4.568,4.541,4.541,0,1,0-.038,9.082,4.418,4.418,0,0,0,4.553-4.514M121,115.034a4.541,4.541,0,1,0-4.48-4.585,4.446,4.446,0,0,0,4.48,4.585M71.166,8.624c1.1,0,2.2-.031,3.3.009.959.035,1.235-.553,1.045-1.277-.329-1.252.954-2.883-.869-3.777a.34.34,0,0,0-.142-.012q-3.3,0-6.6,0c-.689,0-1.17.3-1.051,1.022.22,1.332-.7,2.847.6,3.985.168.147.557.052.843.053.956,0,1.913,0,2.869,0" transform="translate(3.564 3.564)" fill="#fff" stroke="#fff" stroke-width="0.6"/><path d="M197.05,121.805a11.446,11.446,0,1,1,11.473-11.343,11.33,11.33,0,0,1-11.473,11.343m.058-3.564a7.876,7.876,0,1,0-7.908-7.874,7.674,7.674,0,0,0,7.908,7.874" transform="translate(-128.635 -66.878)" fill="#fff" stroke="#fff" stroke-width="0.6"/><path d="M101.879,273.676c0-1.531-.035-3.063.01-4.592s.686-2.222,2.2-2.249q4.3-.076,8.61,0a2.006,2.006,0,0,1,2.188,2.288q.06,4.663,0,9.328c-.024,1.579-.724,2.222-2.355,2.241q-4.161.049-8.324,0c-1.606-.021-2.272-.689-2.316-2.281s-.01-3.157-.01-4.736m9.447.17q0-.717,0-1.434c0-2.022,0-2.022-2.051-2.025-3.818-.005-3.832-.005-3.814,3.844.015,3.244-.381,2.871,2.767,2.888,3.1.016,3.1,0,3.1-3.273" transform="translate(-68.981 -186.437)" fill="#fff" stroke="#fff" stroke-width="0.6"/><path d="M114.893,338.509c0,1.482.02,2.965-.005,4.447-.03,1.768-.681,2.507-2.39,2.538q-4.158.077-8.319,0c-1.678-.036-2.29-.719-2.306-2.44q-.041-4.518,0-9.036c.019-1.689.686-2.356,2.365-2.376q4.159-.05,8.319,0c1.606.021,2.268.684,2.317,2.281.047,1.528.01,3.06.01,4.59Zm-3.577.094c0-3.394,0-3.394-3.416-3.393-.43,0-.862.026-1.29,0-.874-.055-1.2.361-1.168,1.2.035,1,0,2.007.006,3.011.012,2.823-.243,2.51,2.556,2.52,3.312.012,3.312,0,3.312-3.342" transform="translate(-68.97 -232.596)" fill="#fff" stroke="#fff" stroke-width="0.6"/><path d="M249.858,273.916c0,1.482.028,2.964,0,4.445-.036,1.63-.666,2.325-2.239,2.348-2.867.042-5.736.02-8.6.006a1.906,1.906,0,0,1-2.118-2.026q-.082-4.874-.008-9.749a1.953,1.953,0,0,1,2.1-2.074c2.915-.047,5.832-.06,8.746,0,1.429.027,2.07.732,2.112,2.179.046,1.624.011,3.25.012,4.875m-3.58-.04c0-.478,0-.956,0-1.434,0-2.03,0-2.03-2.051-2.033-3.822-.006-3.838-.006-3.817,3.836.018,3.241-.423,2.9,2.752,2.889,3.619-.014,3.059.5,3.116-3.258" transform="translate(-165.11 -186.458)" fill="#fff" stroke="#fff" stroke-width="0.6"/><path d="M249.811,209c0,1.577.038,3.155-.011,4.73-.047,1.522-.7,2.161-2.237,2.176q-4.228.044-8.457,0c-1.542-.017-2.232-.617-2.267-2.16-.071-3.152-.068-6.307-.009-9.459.028-1.5.736-2.182,2.26-2.213,2.818-.059,5.638-.066,8.456.006,1.657.042,2.227.758,2.271,2.478,0,.1,0,.191,0,.287V209Zm-3.578.077q0-.645,0-1.291c0-2.194,0-2.194-2.172-2.2-3.7,0-3.716,0-3.7,3.957.014,3.009-.4,2.8,2.587,2.782,3.8-.026,3.224.5,3.282-3.252" transform="translate(-165.065 -140.314)" fill="#fff" stroke="#fff" stroke-width="0.6"/><path d="M101.879,209.061c0-1.529-.025-3.058.007-4.586.034-1.608.656-2.344,2.231-2.383q4.3-.1,8.6,0c1.484.038,2.147.773,2.17,2.3q.07,4.656,0,9.315c-.023,1.521-.714,2.184-2.228,2.2q-4.3.053-8.6,0a1.912,1.912,0,0,1-2.158-2.121c-.057-1.574-.013-3.152-.013-4.729Zm9.449.025q0-.645,0-1.291c0-2.192,0-2.192-2.166-2.193-3.7,0-3.716,0-3.7,3.958.013,3.012-.372,2.779,2.595,2.786,3.27.008,3.27,0,3.27-3.26" transform="translate(-68.983 -140.321)" fill="#fff" stroke="#fff" stroke-width="0.6"/><path d="M316.292,338.645c0,1.58-.015,3.16,0,4.74a1.853,1.853,0,0,1-2.016,2.1c-2.919.053-5.841.063-8.76,0-1.449-.03-2.05-.723-2.062-2.2q-.038-4.739,0-9.479c.014-1.473.638-2.14,2.088-2.162q4.308-.067,8.617,0c1.477.02,2.088.66,2.119,2.121.034,1.627.008,3.255.008,4.883m-9.272-.126c0,3.429,0,3.429,3.4,3.427.383,0,.766-.019,1.148,0,.761.037,1.176-.271,1.172-1.073-.009-1.531,0-3.061,0-4.592,0-.693-.308-1.077-1.038-1.063-.43.008-.861-.014-1.292-.007-3.885.058-3.333-.537-3.386,3.308" transform="translate(-212.533 -232.595)" fill="#fff" stroke="#fff" stroke-width="0.6"/><path d="M168.585,273.71c0-1.532-.018-3.064,0-4.6.023-1.576.588-2.246,2.122-2.277q4.306-.086,8.615,0c1.455.03,2.081.721,2.094,2.171q.042,4.739,0,9.477c-.013,1.517-.655,2.174-2.212,2.2q-4.235.066-8.471,0c-1.534-.021-2.121-.667-2.146-2.242s-.006-3.159-.006-4.738m9.273.042c0-.622-.041-1.247.009-1.865.089-1.091-.3-1.6-1.464-1.514a28.8,28.8,0,0,1-3.013.01c-.819-.025-1.267.263-1.256,1.145.019,1.483.013,2.966,0,4.449-.005.76.308,1.171,1.11,1.142.43-.016.861.009,1.292,0,3.821-.06,3.266.552,3.319-3.369" transform="translate(-116.49 -186.436)" fill="#fff" stroke="#fff" stroke-width="0.6"/><path d="M316.294,273.774c0,1.58.022,3.16-.007,4.739-.027,1.486-.62,2.152-2.064,2.175q-4.307.067-8.615,0c-1.529-.026-2.138-.7-2.15-2.257q-.035-4.666,0-9.334c.012-1.547.622-2.227,2.158-2.256,2.871-.054,5.744-.057,8.615.007,1.466.033,2.032.7,2.058,2.19.028,1.579.006,3.159.006,4.739m-3.545-.064c-.044-3.886.437-3.26-3.383-3.321-.43-.007-.862.017-1.292,0-.726-.025-1.05.324-1.047,1.036.006,1.148-.006,2.3-.006,3.444,0,2.249,0,2.271,2.286,2.245,3.911-.044,3.392.57,3.44-3.408" transform="translate(-212.534 -186.438)" fill="#fff" stroke="#fff" stroke-width="0.6"/><path d="M168.572,209.03c0-1.532.035-3.064-.011-4.593-.042-1.422.624-2.22,2.007-2.244q4.447-.079,8.9.007c1.315.027,1.959.835,1.955,2.166-.01,3.158.018,6.316-.012,9.473-.015,1.533-.65,2.143-2.228,2.159q-4.162.044-8.325,0c-1.693-.015-2.248-.572-2.275-2.235-.026-1.578-.005-3.158-.006-4.736m9.274.047c0-3.4,0-3.4-3.432-3.395-.383,0-.767.02-1.148,0-.785-.04-1.148.321-1.141,1.1.009,1.1-.006,2.2-.006,3.3,0,2.337,0,2.358,2.374,2.334,3.851-.039,3.3.52,3.353-3.346" transform="translate(-116.477 -140.402)" fill="#fff" stroke="#fff" stroke-width="0.6"/><path d="M316.311,209.073c0,1.579.022,3.158-.008,4.737-.029,1.519-.588,2.129-2.065,2.149q-4.305.058-8.612,0c-1.488-.017-2.131-.641-2.146-2.091-.033-3.205-.007-6.412-.009-9.617a1.877,1.877,0,0,1,2.026-2.1c2.917-.052,5.837-.079,8.753,0,1.566.045,2.04.684,2.06,2.322.018,1.531,0,3.062,0,4.593m-9.273-.07a14.857,14.857,0,0,1-.011,1.722c-.161,1.363.47,1.791,1.746,1.682a24.533,24.533,0,0,1,2.727-.013c.813.021,1.27-.273,1.26-1.153q-.025-2.225,0-4.451c.012-.878-.423-1.2-1.25-1.145-.381.025-.765,0-1.148,0-3.327,0-3.327,0-3.326,3.356" transform="translate(-212.55 -140.366)" fill="#fff" stroke="#fff" stroke-width="0.6"/><path d="M223.388,127.572c-3.669.047-3.763-.047-3.76-3.753a19.939,19.939,0,0,1,.039-2.149,1.668,1.668,0,0,1,1.782-1.68,1.706,1.706,0,0,1,1.718,1.608,2.325,2.325,0,0,1,.037.714c-.152,1.258.288,1.9,1.658,1.777a2.524,2.524,0,0,1,1.242.278,1.6,1.6,0,0,1,.968,1.754,1.549,1.549,0,0,1-1.393,1.433,19.793,19.793,0,0,1-2.291.019" transform="translate(-152.839 -81.887)" fill="#fff" stroke="#fff" stroke-width="0.6"/></g></svg>