<svg xmlns="http://www.w3.org/2000/svg" xmlns:xlink="http://www.w3.org/1999/xlink" width="129.059" height="128.978" viewBox="0 0 129.059 128.978"><defs><clipPath id="a"><rect width="129.059" height="128.978" fill="#fff"/></clipPath></defs><g clip-path="url(#a)"><path d="M65.45,0A52.783,52.783,0,0,0,76.829,2.7a49.41,49.41,0,0,0,8.267.236c1.931-.057,2.723.725,2.733,2.682.013,2.34.018,4.68,0,7.019-.017,1.944-1.067,2.8-2.954,2.456a70.379,70.379,0,0,0-16.45-1.461c-.268.014-.537.015-.8.035-.494.037-.92.159-.931.78-.012.7.49.647.956.68A31.712,31.712,0,0,1,76.5,16.967c7.052,2.614,12.14,7.192,14.4,14.555a12.9,12.9,0,0,1,.647,3.03c.067,1.162.542,1.583,1.789,1.575,9.2-.059,18.41-.031,27.615-.032.959,0,1.918-.021,2.876,0,.682.017.975-.266.962-.955-.023-1.189-.046-2.38.009-3.566.043-.916-.335-1.2-1.216-1.194-3.26.033-6.52.012-9.78.012q-8.917,0-17.834-.007a8.041,8.041,0,0,1-1.71-.158,2.084,2.084,0,0,1-.04-4.063A7.12,7.12,0,0,1,95.814,26q15.073-.014,30.146,0c2.433,0,3.1.664,3.1,3.052q0,4.315,0,8.63c0,2.026-.656,2.678-2.689,2.678q-29,0-57.991,0H3.02C.524,40.36,0,39.833,0,37.319c0-2.877-.006-5.753,0-8.63.006-1.876.751-2.662,2.647-2.681,3.26-.032,6.52-.012,9.78-.012h20.6a6.476,6.476,0,0,1,1.827.161,2.1,2.1,0,0,1,.041,4.063,6.446,6.446,0,0,1-1.94.174q-13.52,0-27.039,0c-1.641,0-1.642,0-1.645,1.659,0,.959.045,1.92-.012,2.876-.056.927.345,1.184,1.219,1.178,4.3-.03,8.591-.013,12.887-.013,5.868,0,11.737-.012,17.6.013.844,0,1.31-.142,1.463-1.123,1.626-10.447,8.207-16.217,18-18.9a25.947,25.947,0,0,1,5.891-.94c.888-.033,1.089-.392,1.083-1.194-.028-3.758.014-7.517-.027-11.276A2.918,2.918,0,0,1,63.609,0ZM64.434,36.1h21.51c1.528,0,1.555-.008,1.28-1.534A16.49,16.49,0,0,0,78.46,22.551c-4.852-2.665-10.107-3.415-15.564-3.207a27.234,27.234,0,0,0-12.338,3.229,16.57,16.57,0,0,0-8.784,12.252c-.183,1.072.136,1.294,1.15,1.289,7.17-.037,14.34-.02,21.51-.019M66.668,7.089c0,.268,0,.537,0,.8.006,1.516.006,1.53,1.546,1.464C69.474,9.3,70.726,9.2,72,9.261a97.271,97.271,0,0,1,10.736,1.076c.222.035.552.17.648-.033a4.663,4.663,0,0,0,.134-2.365c-.042-.658-.638-.546-1.076-.562A63.579,63.579,0,0,1,68.694,5.515c-2.025-.529-2.027-.521-2.027,1.574" transform="translate(0)" fill="#fff"/><path d="M64.518,171.411H3.079c-2.571,0-3.074-.507-3.074-3.1q0-27.268,0-54.536c0-2.362.644-3.018,2.985-3.018q61.554,0,123.108,0c2.286,0,2.96.672,2.96,2.931q0,27.44,0,54.881c0,2.251-.6,2.842-2.872,2.842q-30.835,0-61.669,0m.005-56.391H5.842c-1.563,0-1.567,0-1.567,1.593q0,24.048,0,48.1c0,2.739-.372,2.366,2.46,2.457,1.1.035,1.357-.379,1.341-1.4-.053-3.49-.028-6.981-.018-10.471a8.016,8.016,0,0,1,8.1-8.211,8.017,8.017,0,0,1,8.168,8.261c.009,3.145-.015,6.29.007,9.435.019,2.647-.405,2.3,2.4,2.389,1.155.039,1.419-.41,1.4-1.473-.055-3.336-.013-6.674-.024-10.01a9.689,9.689,0,0,1,.4-2.835,8.188,8.188,0,0,1,16.024,2.316c.061,3.221,0,6.443.019,9.665.012,2.588-.31,2.234,2.353,2.341,1.218.049,1.46-.409,1.454-1.528q-.066-11.391-.018-22.782a16.189,16.189,0,0,1,32.377.249c.013,7.211-.01,14.421.01,21.632.007,2.7-.436,2.343,2.478,2.421,1.007.027,1.336-.307,1.321-1.317-.05-3.413-.013-6.827-.022-10.24a9.44,9.44,0,0,1,.386-2.721,8.19,8.19,0,0,1,16.037,2.36c.047,3.144-.006,6.29.017,9.435.02,2.783-.4,2.411,2.546,2.482.947.023,1.266-.292,1.254-1.251-.045-3.6-.032-7.211-.013-10.816A8.133,8.133,0,0,1,121,155.082c.02,3.3-.005,6.6.009,9.9.01,2.362-.311,2.159,2.141,2.167,1.638,0,1.641,0,1.642-1.648q0-24.394,0-48.786c0-1.688,0-1.689-1.7-1.689H64.524M52.61,153.952c0,3.95.023,7.9-.016,11.85-.01.955.216,1.369,1.274,1.363q10.7-.058,21.4-.006c.895,0,1.205-.294,1.2-1.2-.028-7.824.086-15.649-.058-23.47a11.7,11.7,0,0,0-12.03-11.318,11.829,11.829,0,0,0-11.77,12.078c-.013,3.567,0,7.133,0,10.7m-12.329,6.786c0-1.76.037-3.522-.009-5.282a3.894,3.894,0,0,0-3.9-4.1,3.854,3.854,0,0,0-3.961,4.027c-.06,3.6-.008,7.2-.027,10.793,0,.675.234.978.932.971,1.99-.02,3.981-.024,5.971,0,.74.01,1.02-.276,1.007-1.018-.033-1.8-.011-3.6-.013-5.4m56.392.123q0-2.641,0-5.282c0-.077,0-.153,0-.23a3.913,3.913,0,0,0-4.012-3.991,3.851,3.851,0,0,0-3.854,4.018c-.06,3.6,0,7.2-.03,10.793-.006.775.336.991,1.042.982q2.928-.035,5.856,0c.732.01,1.029-.26,1.015-1.01-.034-1.76-.011-3.521-.011-5.282m-84.341-.428c0,1.877.022,3.754-.01,5.63-.014.78.263,1.106,1.066,1.091q2.814-.052,5.63,0c.812.016,1.062-.329,1.057-1.1-.024-3.6.012-7.2-.021-10.8a3.77,3.77,0,0,0-3.925-3.9,3.743,3.743,0,0,0-3.791,3.905c-.023,1.723,0,3.447-.006,5.17m96.67.04c0,1.877.016,3.754-.008,5.63-.009.711.223,1.059.988,1.048q2.872-.041,5.745,0c.74.01,1.019-.287,1.015-1.021-.021-3.677.022-7.354-.027-11.03a3.854,3.854,0,0,0-7.706.088c-.029,1.761-.006,3.523-.007,5.285" transform="translate(-0.003 -66.604)" fill="#fff"/><path d="M64.531,317.1H3.328c-.422,0-.845.015-1.265-.011a2,2,0,0,1-2.034-1.93,2.091,2.091,0,0,1,1.719-2.246,6.245,6.245,0,0,1,1.259-.075q61.548,0,123.1,0a3.838,3.838,0,0,1,1.588.181,2.049,2.049,0,0,1,1.357,2.279,1.989,1.989,0,0,1-1.933,1.788c-.419.033-.843.015-1.265.015H64.531" transform="translate(-0.014 -188.127)" fill="#fff"/><path d="M70.535,296.895H13c-1.954,0-2.986-.7-3.017-2.045-.033-1.416,1.043-2.218,3.013-2.218l115.065,0a3.973,3.973,0,0,1,1.7.225,2.094,2.094,0,0,1-.543,4.014,11.04,11.04,0,0,1-1.379.026h-57.3" transform="translate(-6.004 -175.976)" fill="#fff"/><path d="M76.573,276.686q-26.861,0-53.723,0c-1.627,0-2.471-.6-2.612-1.813a2.109,2.109,0,0,1,1.813-2.392,8.194,8.194,0,0,1,1.376-.055q53.263,0,106.525,0a7.51,7.51,0,0,1,1.488.081,2.08,2.08,0,0,1,1.709,2.253,2.008,2.008,0,0,1-2.048,1.918c-.42.025-.843.01-1.265.01H76.573" transform="translate(-12.16 -163.824)" fill="#fff"/><path d="M211.987,145.76c0-2.148-.019-4.3,0-6.444a8.21,8.21,0,1,1,16.418.012c.032,4.3.02,8.592,0,12.888-.01,2.207-1.039,3.22-3.271,3.233q-4.948.028-9.9,0c-2.223-.014-3.242-1.042-3.255-3.244-.012-2.148,0-4.3,0-6.444m12.161-.988h-.006c0-1.8.051-3.607-.013-5.407a3.932,3.932,0,1,0-7.853.039c-.059,3.6,0,7.21-.031,10.815-.006.782.332.983,1.043.972,1.955-.028,3.912-.032,5.867,0,.751.013,1.017-.27,1-1.013-.034-1.8-.011-3.6-.011-5.408" transform="translate(-127.477 -78.761)" fill="#fff"/><path d="M70.528,145.745c0-2.148-.02-4.3,0-6.444a8.208,8.208,0,1,1,16.415-.075c.045,4.334.024,8.669,0,13-.009,2.161-1.031,3.2-3.17,3.216q-5.062.038-10.126,0c-2.078-.018-3.107-1.073-3.124-3.139-.018-2.186,0-4.373,0-6.559m12.16-.946q0-2.531,0-5.062a5.005,5.005,0,0,0-.542-2.444,3.923,3.923,0,0,0-7.329,2.082c-.054,3.6,0,7.21-.031,10.815-.006.753.275,1.013,1.015,1,1.955-.032,3.912-.041,5.868,0,.838.019,1.048-.341,1.032-1.1-.036-1.764-.012-3.528-.012-5.292" transform="translate(-42.408 -78.761)" fill="#fff"/><path d="M262.709,145.509c0-2.185-.017-4.369,0-6.554a8.131,8.131,0,0,1,16.261.041c.026,4.484.013,8.969,0,13.453a2.685,2.685,0,0,1-2.98,3q-5.174.044-10.348,0c-1.942-.019-2.93-1.075-2.938-3.034-.01-2.3,0-4.6,0-6.9m4.268-1.04c0,1.8.043,3.6-.017,5.4-.033.969.23,1.384,1.28,1.339,1.757-.076,3.521-.058,5.28-.005.888.027,1.217-.26,1.207-1.174-.039-3.6,0-7.195-.025-10.792a3.86,3.86,0,1,0-7.716-.045c-.028,1.76-.006,3.521-.009,5.281" transform="translate(-157.98 -78.762)" fill="#fff"/><path d="M36.474,145.627c0,2.3.012,4.6,0,6.9a2.636,2.636,0,0,1-2.826,2.911q-5.288.066-10.578,0a2.657,2.657,0,0,1-2.861-2.993c-.009-4.484-.021-8.969,0-13.453a8.132,8.132,0,0,1,16.261-.035c.022,2.223,0,4.446,0,6.669M32.2,144.52q0-2.641,0-5.281c0-.077,0-.153-.005-.23a3.937,3.937,0,0,0-3.889-3.757,3.866,3.866,0,0,0-3.814,3.7c-.051,3.75-.008,7.5-.03,11.251,0,.756.307,1,1.033.989,1.875-.031,3.751-.045,5.625.006.894.025,1.11-.364,1.094-1.167-.036-1.837-.012-3.674-.014-5.511" transform="translate(-12.144 -78.762)" fill="#fff"/><path d="M144.957,135.221c-2.872,0-5.745.008-8.617,0-1.563-.006-2.456-.779-2.468-2.093-.011-1.292.906-2.151,2.443-2.157q8.732-.031,17.464,0a2.141,2.141,0,0,1,2.406,2.194c-.02,1.318-.892,2.05-2.5,2.055-2.911.01-5.821,0-8.732,0" transform="translate(-80.506 -78.751)" fill="#fff"/></g></svg>