<svg xmlns="http://www.w3.org/2000/svg" width="363.842" height="395.704" viewBox="0 0 363.842 395.704"><g transform="translate(-4908.09 -3467.033)"><path d="M5131.382,3753.966h-66.353a98.486,98.486,0,0,1-98.44-98.44V3644.1a98.486,98.486,0,0,1,98.44-98.439h66.41a98.486,98.486,0,0,1,98.439,98.439v11.426A98.469,98.469,0,0,1,5131.382,3753.966Z" fill="#00d40f" fill-rule="evenodd"/><path d="M5097.557,3859.546c134.38-99.986,161.454-181.684,174.042-299.326,13.3-124.249-376.479-124.249-363.176,0,11.6,108.388,39.66,199.336,174.049,299.333C5089.392,3863.539,5089.747,3864.053,5097.557,3859.546Zm-73.793-220.677L5076.6,3691.7l92.518-102.553,25.046,22.538-116.338,128.957-77.919-77.928Z" fill="#fff" fill-rule="evenodd"/></g></svg>