<svg xmlns="http://www.w3.org/2000/svg" xmlns:xlink="http://www.w3.org/1999/xlink" width="87.566" height="128.979" viewBox="0 0 87.566 128.979"><defs><clipPath id="a"><rect width="87.566" height="128.978" fill="#fff"/></clipPath></defs><g clip-path="url(#a)"><path d="M43.793,128.976q-20.315,0-40.629,0a14.157,14.157,0,0,1-1.669-.062,1.5,1.5,0,0,1-1.472-1.586c-.023-3.306-.04-6.612.007-9.917.018-1.231.592-1.636,1.982-1.659,1.8-.03,1.8-.03,1.8-1.842,0-4.7.027-9.4-.018-14.1a2.6,2.6,0,0,1,1.491-2.579c4.637-2.641,9.215-5.384,13.841-8.044a1.815,1.815,0,0,0,1.012-1.822c-.034-3.385.017-6.772-.029-10.157A2.849,2.849,0,0,1,21.6,74.451c1.567-.945,3.026-2.071,4.6-3a2.421,2.421,0,0,0,1.272-2.425c-.041-10.476-.01-20.952-.045-31.428a3.194,3.194,0,0,1,1.188-2.686C32.9,31.225,37.13,27.47,41.406,23.77a2.316,2.316,0,0,0,.923-1.937c-.037-3.146-.048-6.294,0-9.44.018-1.061-.262-1.511-1.407-1.452-1.708.088-3.424.028-5.137.021-1.425-.006-2.077-.439-2.108-1.378-.032-.963.595-1.4,2.04-1.4,1.792-.006,3.586-.045,5.377.015.958.032,1.259-.335,1.23-1.253-.051-1.592-.021-3.186-.01-4.779C42.327.727,42.851-.019,43.807,0c.938.019,1.43.765,1.438,2.217.009,1.553.044,3.108-.012,4.66-.035.964.267,1.359,1.286,1.32,1.79-.068,3.584-.024,5.377-.017,1.378.005,1.975.416,1.984,1.341.01.96-.649,1.433-2.046,1.441-1.753.009-3.508.059-5.257-.017-1.079-.047-1.364.37-1.347,1.388.051,3.146.044,6.294,0,9.44a2.426,2.426,0,0,0,.972,2.035c4.216,3.648,8.38,7.356,12.6,10.995a3.556,3.556,0,0,1,1.335,2.988c-.046,10.476-.012,20.952-.047,31.427a2.186,2.186,0,0,0,1.147,2.129c1.661,1.023,3.237,2.182,4.89,3.217a2.634,2.634,0,0,1,1.326,2.479c-.028,3.346.029,6.693-.031,10.037a2.168,2.168,0,0,0,1.254,2.184c4.53,2.586,9.009,5.264,13.544,7.842a2.757,2.757,0,0,1,1.6,2.752c-.073,4.819,0,9.639-.048,14.459-.01,1.048.223,1.5,1.385,1.457,2.046-.075,2.392.342,2.4,2.443q.009,4.182,0,8.365c-.005,1.911-.469,2.383-2.422,2.388-5.138.013-10.277.005-15.415.005H43.793M23.042,96.265q0,8.845,0,17.689c0,1.79,0,1.79,1.846,1.791h5.378c1.724,0,1.725,0,1.726-1.785,0-4.94-.046-9.881.018-14.82a11.785,11.785,0,0,1,23.557.772c.009,4.86.018,9.721-.012,14.581-.006.891.2,1.3,1.2,1.271q3.284-.1,6.572,0c.985.028,1.212-.369,1.211-1.265q-.029-18.226,0-36.452a1.872,1.872,0,0,0-.95-1.755Q54.271,70.124,45,63.885a1.791,1.791,0,0,0-2.339.028Q33.479,70.065,24.231,76.12a2.323,2.323,0,0,0-1.212,2.222c.049,5.974.024,11.949.024,17.923m7.191-43.394q0,7.288.009,14.577c0,.331-.195.791.213.968.3.133.575-.2.834-.374,3.688-2.436,7.394-4.847,11.046-7.337a2.35,2.35,0,0,1,3.032.008c3.614,2.475,7.278,4.877,10.927,7.3.256.17.507.508.828.384.374-.145.2-.562.2-.855q.013-14.636.012-29.273a1.749,1.749,0,0,0-.583-1.478Q50.666,31.5,44.625,26.164c-.652-.579-1.052-.552-1.69.017Q37,31.464,30.994,36.662a2.076,2.076,0,0,0-.773,1.751c.023,4.819.012,9.638.012,14.457m13.539,73.186H67.55c5.257,0,10.515-.019,15.772.016.975.006,1.362-.294,1.324-1.3-.061-1.591-.077-3.189.005-4.777.06-1.152-.339-1.489-1.492-1.487q-30.11.051-60.221.029c-6.213,0-12.427.015-18.64-.027-1.029-.007-1.437.282-1.386,1.349.073,1.51.016,3.026.019,4.54,0,1.65.006,1.654,1.65,1.654q19.6,0,39.191,0m-.068-10.313c2.627,0,5.255-.023,7.881.014.838.012,1.22-.2,1.213-1.128-.036-5.015.055-10.032-.041-15.046a8.982,8.982,0,0,0-17.962.087c-.07,4.975,0,9.951-.033,14.927-.006.894.3,1.176,1.18,1.162,2.587-.043,5.175-.016,7.762-.015m37.288-8.132c0-2.311-.02-4.621.012-6.932a1.457,1.457,0,0,0-.818-1.439q-5.84-3.387-11.65-6.827c-.882-.523-1.1-.224-1.095.669q.018,10.756,0,21.513c0,.892.344,1.171,1.208,1.164,3.7-.032,7.41-.037,11.115,0,.922.01,1.273-.262,1.25-1.22-.055-2.31-.018-4.621-.018-6.932m-60.871-3.8c0-3.545-.018-7.089.011-10.634.008-1-.235-1.2-1.139-.661q-5.6,3.323-11.25,6.555a1.823,1.823,0,0,0-1.023,1.82c.03,4.5.039,9,0,13.5-.01,1.032.308,1.393,1.366,1.377,3.544-.055,7.09-.062,10.633,0,1.128.021,1.44-.377,1.425-1.447-.049-3.5-.018-7.009-.019-10.514" transform="translate(0 0)" fill="#fff"/><path d="M164.332,165.73a8.5,8.5,0,1,1-8.253-8.643,8.524,8.524,0,0,1,8.253,8.643m-8.414-5.706a5.58,5.58,0,0,0-5.739,5.731,5.671,5.671,0,1,0,11.338-.251,5.521,5.521,0,0,0-5.6-5.481" transform="translate(-112.067 -119.482)" fill="#fff"/></g></svg>